<svg xmlns="http://www.w3.org/2000/svg" viewBox="0 0 640 340"><rect width="640" height="340" fill="#f6f1e6"/><line x1="70" y1="290" x2="620" y2="290" stroke="#cfc4ab" stroke-width="1"/><text x="62.0" y="294.0" font-size="11" fill="#6b6353" text-anchor="end" font-family="ui-monospace,Menlo,monospace" >0.00</text><line x1="70" y1="225.0" x2="620" y2="225.0" stroke="#cfc4ab" stroke-width="1"/><text x="62.0" y="229.0" font-size="11" fill="#6b6353" text-anchor="end" font-family="ui-monospace,Menlo,monospace" >0.25</text><line x1="70" y1="160.0" x2="620" y2="160.0" stroke="#cfc4ab" stroke-width="1"/><text x="62.0" y="164.0" font-size="11" fill="#6b6353" text-anchor="end" font-family="ui-monospace,Menlo,monospace" >0.50</text><line x1="70" y1="95.0" x2="620" y2="95.0" stroke="#cfc4ab" stroke-width="1"/><text x="62.0" y="99.0" font-size="11" fill="#6b6353" text-anchor="end" font-family="ui-monospace,Menlo,monospace" >0.75</text><line x1="70" y1="30" x2="620" y2="30" stroke="#cfc4ab" stroke-width="1"/><text x="62.0" y="34.0" font-size="11" fill="#6b6353" text-anchor="end" font-family="ui-monospace,Menlo,monospace" >1.00</text><text x="70.0" y="308.0" font-size="11" fill="#6b6353" text-anchor="middle" font-family="ui-monospace,Menlo,monospace" >0y</text><text x="203.8" y="308.0" font-size="11" fill="#6b6353" text-anchor="middle" font-family="ui-monospace,Menlo,monospace" >2y</text><text x="337.7" y="308.0" font-size="11" fill="#6b6353" text-anchor="middle" font-family="ui-monospace,Menlo,monospace" >4y</text><text x="471.5" y="308.0" font-size="11" fill="#6b6353" text-anchor="middle" font-family="ui-monospace,Menlo,monospace" >6y</text><text x="605.3" y="308.0" font-size="11" fill="#6b6353" text-anchor="middle" font-family="ui-monospace,Menlo,monospace" >8y</text><polyline points="70.0,30.0 74.6,34.5 79.2,38.9 83.8,43.2 88.3,47.4 92.9,51.6 97.5,55.7 102.1,59.7 106.7,63.7 111.2,67.5 115.8,71.4 120.4,75.1 125.0,78.8 129.6,82.4 134.2,86.0 138.8,89.5 143.3,93.0 147.9,96.3 152.5,99.7 157.1,102.9 161.7,106.2 166.2,109.3 170.8,112.4 175.4,115.5 180.0,118.5 184.6,121.4 189.2,124.3 193.8,127.2 198.3,130.0 202.9,132.7 207.5,135.4 212.1,138.1 216.7,140.7 221.2,143.2 225.8,145.8 230.4,148.2 235.0,150.7 239.6,153.1 244.2,155.4 248.8,157.7 253.3,160.0 257.9,162.2 262.5,164.4 267.1,166.6 271.7,168.7 276.2,170.8 280.8,172.8 285.4,174.9 290.0,176.8 294.6,178.8 299.2,180.7 303.8,182.6 308.3,184.4 312.9,186.2 317.5,188.0 322.1,189.8 326.7,191.5 331.2,193.2 335.8,194.8 340.4,196.5 345.0,198.1 349.6,199.7 354.2,201.2 358.8,202.7 363.3,204.2 367.9,205.7 372.5,207.2 377.1,208.6 381.7,210.0 386.2,211.4 390.8,212.7 395.4,214.0 400.0,215.3 404.6,216.6 409.2,217.9 413.8,219.1 418.3,220.3 422.9,221.5 427.5,222.7 432.1,223.9 436.7,225.0 441.2,226.1 445.8,227.2 450.4,228.3 455.0,229.4 459.6,230.4 464.2,231.4 468.8,232.4 473.3,233.4 477.9,234.4 482.5,235.3 487.1,236.3 491.7,237.2 496.2,238.1 500.8,239.0 505.4,239.9 510.0,240.7 514.6,241.6 519.2,242.4 523.8,243.2 528.3,244.0 532.9,244.8 537.5,245.6 542.1,246.4 546.7,247.1 551.2,247.9 555.8,248.6 560.4,249.3 565.0,250.0 569.6,250.7 574.2,251.4 578.8,252.0 583.3,252.7 587.9,253.3 592.5,253.9 597.1,254.6 601.7,255.2 606.2,255.8 610.8,256.4 615.4,256.9 620.0,257.5" fill="none" stroke="#14633f" stroke-width="2.5"/><line x1="253.33333333333334" y1="160.0" x2="253.33333333333334" y2="290" stroke="#a72a1e" stroke-width="1.5" stroke-dasharray="4 3"/><text x="259.3" y="154.0" font-size="12" fill="#a72a1e" text-anchor="start" font-family="ui-monospace,Menlo,monospace" >half-life: 1000 days</text><text x="70.0" y="18.0" font-size="13" fill="#211d16" text-anchor="start" font-family="ui-monospace,Menlo,monospace" >weight of a result in the fit, by age</text><text x="620.0" y="308.0" font-size="11" fill="#6b6353" text-anchor="end" font-family="ui-monospace,Menlo,monospace" >match age</text></svg>