<svg xmlns="http://www.w3.org/2000/svg" viewBox="0 0 640 340"><rect width="640" height="340" fill="#f6f1e6"/><line x1="70" y1="290.0" x2="620" y2="290.0" stroke="#cfc4ab"/><text x="62.0" y="294.0" font-size="11" fill="#6b6353" text-anchor="end" font-family="ui-monospace,Menlo,monospace" >0%</text><line x1="70" y1="221.491881939862" x2="620" y2="221.491881939862" stroke="#cfc4ab"/><text x="62.0" y="225.5" font-size="11" fill="#6b6353" text-anchor="end" font-family="ui-monospace,Menlo,monospace" >10%</text><line x1="70" y1="152.98376387972397" x2="620" y2="152.98376387972397" stroke="#cfc4ab"/><text x="62.0" y="157.0" font-size="11" fill="#6b6353" text-anchor="end" font-family="ui-monospace,Menlo,monospace" >20%</text><line x1="70" y1="84.47564581958596" x2="620" y2="84.47564581958596" stroke="#cfc4ab"/><text x="62.0" y="88.5" font-size="11" fill="#6b6353" text-anchor="end" font-family="ui-monospace,Menlo,monospace" >30%</text><rect x="76.0" y="63.9" width="56.8" height="226.1" fill="#211d16" opacity="0.82"/><text x="104.4" y="308.0" font-size="11" fill="#6b6353" text-anchor="middle" font-family="ui-monospace,Menlo,monospace" >0</text><rect x="144.8" y="76.0" width="56.8" height="214.0" fill="#211d16" opacity="0.82"/><text x="173.1" y="308.0" font-size="11" fill="#6b6353" text-anchor="middle" font-family="ui-monospace,Menlo,monospace" >1</text><rect x="213.5" y="161.8" width="56.8" height="128.2" fill="#211d16" opacity="0.82"/><text x="241.9" y="308.0" font-size="11" fill="#6b6353" text-anchor="middle" font-family="ui-monospace,Menlo,monospace" >2</text><rect x="282.2" y="229.7" width="56.8" height="60.3" fill="#211d16" opacity="0.82"/><text x="310.6" y="308.0" font-size="11" fill="#6b6353" text-anchor="middle" font-family="ui-monospace,Menlo,monospace" >3</text><rect x="351.0" y="260.5" width="56.8" height="29.5" fill="#211d16" opacity="0.82"/><text x="379.4" y="308.0" font-size="11" fill="#6b6353" text-anchor="middle" font-family="ui-monospace,Menlo,monospace" >4</text><rect x="419.8" y="276.7" width="56.8" height="13.3" fill="#211d16" opacity="0.82"/><text x="448.1" y="308.0" font-size="11" fill="#6b6353" text-anchor="middle" font-family="ui-monospace,Menlo,monospace" >5</text><rect x="488.5" y="283.1" width="56.8" height="6.9" fill="#211d16" opacity="0.82"/><text x="516.9" y="308.0" font-size="11" fill="#6b6353" text-anchor="middle" font-family="ui-monospace,Menlo,monospace" >6</text><rect x="557.2" y="286.9" width="56.8" height="3.1" fill="#211d16" opacity="0.82"/><text x="585.6" y="308.0" font-size="11" fill="#6b6353" text-anchor="middle" font-family="ui-monospace,Menlo,monospace" >7</text><polyline points="104.4,113.4 173.1,50.6 241.9,127.7 310.6,216.7 379.4,265.1 448.1,283.3 516.9,288.5 585.6,289.7" fill="none" stroke="#14633f" stroke-width="2"/><circle cx="104.4" cy="113.4" r="4" fill="#14633f"/><circle cx="173.1" cy="50.6" r="4" fill="#14633f"/><circle cx="241.9" cy="127.7" r="4" fill="#14633f"/><circle cx="310.6" cy="216.7" r="4" fill="#14633f"/><circle cx="379.4" cy="265.1" r="4" fill="#14633f"/><circle cx="448.1" cy="283.3" r="4" fill="#14633f"/><circle cx="516.9" cy="288.5" r="4" fill="#14633f"/><circle cx="585.6" cy="289.7" r="4" fill="#14633f"/><text x="70.0" y="18.0" font-size="13" fill="#211d16" text-anchor="start" font-family="ui-monospace,Menlo,monospace" >goals per team per match, 8,086 internationals (bars) vs Poisson λ=1.36 (dots)</text><text x="620.0" y="308.0" font-size="11" fill="#6b6353" text-anchor="end" font-family="ui-monospace,Menlo,monospace" >goals</text></svg>