<svg xmlns="http://www.w3.org/2000/svg" viewBox="0 0 560 560"><rect width="560" height="560" fill="#f6f1e6"/><text x="80.0" y="22.0" font-size="14" fill="#211d16" text-anchor="start" font-family="ui-monospace,Menlo,monospace" >calibration on 1,071 held-out matches</text><text x="80.0" y="40.0" font-size="11" fill="#6b6353" text-anchor="start" font-family="ui-monospace,Menlo,monospace" >a forecaster saying 60% should be right 60% of the time</text><line x1="80" y1="496" x2="536" y2="496" stroke="#cfc4ab"/><text x="72.0" y="500.0" font-size="11" fill="#6b6353" text-anchor="end" font-family="ui-monospace,Menlo,monospace" >0%</text><text x="80.0" y="514.0" font-size="11" fill="#6b6353" text-anchor="middle" font-family="ui-monospace,Menlo,monospace" >0%</text><line x1="80" y1="406.8" x2="536" y2="406.8" stroke="#cfc4ab"/><text x="72.0" y="410.8" font-size="11" fill="#6b6353" text-anchor="end" font-family="ui-monospace,Menlo,monospace" >20%</text><text x="171.2" y="514.0" font-size="11" fill="#6b6353" text-anchor="middle" font-family="ui-monospace,Menlo,monospace" >20%</text><line x1="80" y1="317.59999999999997" x2="536" y2="317.59999999999997" stroke="#cfc4ab"/><text x="72.0" y="321.6" font-size="11" fill="#6b6353" text-anchor="end" font-family="ui-monospace,Menlo,monospace" >40%</text><text x="262.4" y="514.0" font-size="11" fill="#6b6353" text-anchor="middle" font-family="ui-monospace,Menlo,monospace" >40%</text><line x1="80" y1="228.4" x2="536" y2="228.4" stroke="#cfc4ab"/><text x="72.0" y="232.4" font-size="11" fill="#6b6353" text-anchor="end" font-family="ui-monospace,Menlo,monospace" >60%</text><text x="353.6" y="514.0" font-size="11" fill="#6b6353" text-anchor="middle" font-family="ui-monospace,Menlo,monospace" >60%</text><line x1="80" y1="139.2" x2="536" y2="139.2" stroke="#cfc4ab"/><text x="72.0" y="143.2" font-size="11" fill="#6b6353" text-anchor="end" font-family="ui-monospace,Menlo,monospace" >80%</text><text x="444.8" y="514.0" font-size="11" fill="#6b6353" text-anchor="middle" font-family="ui-monospace,Menlo,monospace" >80%</text><line x1="80" y1="50" x2="536" y2="50" stroke="#cfc4ab"/><text x="72.0" y="54.0" font-size="11" fill="#6b6353" text-anchor="end" font-family="ui-monospace,Menlo,monospace" >100%</text><text x="536.0" y="514.0" font-size="11" fill="#6b6353" text-anchor="middle" font-family="ui-monospace,Menlo,monospace" >100%</text><line x1="80" y1="496" x2="536" y2="50" stroke="#6b6353" stroke-width="1.5" stroke-dasharray="5 4"/><circle cx="105.5" cy="487.3" r="8.1" fill="#14633f" opacity="0.75"/><circle cx="149.8" cy="451.3" r="9.7" fill="#14633f" opacity="0.75"/><circle cx="195.7" cy="393.0" r="12.0" fill="#14633f" opacity="0.75"/><circle cx="235.0" cy="338.6" r="10.4" fill="#14633f" opacity="0.75"/><circle cx="284.3" cy="295.2" r="8.4" fill="#14633f" opacity="0.75"/><circle cx="329.7" cy="225.1" r="7.8" fill="#14633f" opacity="0.75"/><circle cx="374.5" cy="170.9" r="7.3" fill="#14633f" opacity="0.75"/><circle cx="420.7" cy="112.1" r="6.8" fill="#14633f" opacity="0.75"/><circle cx="464.4" cy="71.2" r="6.0" fill="#14633f" opacity="0.75"/><circle cx="508.1" cy="50.0" r="5.5" fill="#14633f" opacity="0.75"/><text x="80.0" y="542.0" font-size="11" fill="#6b6353" text-anchor="start" font-family="ui-monospace,Menlo,monospace" >x: predicted probability · y: observed frequency · dot size: sample count</text></svg>