<svg xmlns="http://www.w3.org/2000/svg" viewBox="0 0 560 562"><rect width="560" height="562" fill="#f6f1e6"/><text x="110.0" y="22.0" font-size="14" fill="#211d16" text-anchor="start" font-family="ui-monospace,Menlo,monospace" >the score grid: Mexico v South Africa</text><text x="110.0" y="42.0" font-size="11" fill="#6b6353" text-anchor="start" font-family="ui-monospace,Menlo,monospace" >model xG 1.75 — 0.67; every market is a sum over these cells</text><rect x="110" y="84" width="61" height="61" fill="#9a7b2d" opacity="0.576"/><text x="140.5" y="120.0" font-size="13" fill="#f6f1e6" text-anchor="middle" font-family="ui-monospace,Menlo,monospace" >9.4</text><rect x="174" y="84" width="61" height="61" fill="#a72a1e" opacity="0.333"/><text x="204.5" y="120.0" font-size="13" fill="#211d16" text-anchor="middle" font-family="ui-monospace,Menlo,monospace" >5.4</text><rect x="238" y="84" width="61" height="61" fill="#a72a1e" opacity="0.122"/><text x="268.5" y="120.0" font-size="13" fill="#211d16" text-anchor="middle" font-family="ui-monospace,Menlo,monospace" >2.0</text><rect x="302" y="84" width="61" height="61" fill="#a72a1e" opacity="0.040"/><rect x="366" y="84" width="61" height="61" fill="#a72a1e" opacity="0.040"/><rect x="430" y="84" width="61" height="61" fill="#a72a1e" opacity="0.040"/><rect x="494" y="84" width="61" height="61" fill="#a72a1e" opacity="0.040"/><rect x="110" y="148" width="61" height="61" fill="#14633f" opacity="0.920"/><text x="140.5" y="184.0" font-size="13" fill="#f6f1e6" text-anchor="middle" font-family="ui-monospace,Menlo,monospace" >15.0</text><rect x="174" y="148" width="61" height="61" fill="#9a7b2d" opacity="0.670"/><text x="204.5" y="184.0" font-size="13" fill="#f6f1e6" text-anchor="middle" font-family="ui-monospace,Menlo,monospace" >10.9</text><rect x="238" y="148" width="61" height="61" fill="#a72a1e" opacity="0.214"/><text x="268.5" y="184.0" font-size="13" fill="#211d16" text-anchor="middle" font-family="ui-monospace,Menlo,monospace" >3.5</text><rect x="302" y="148" width="61" height="61" fill="#a72a1e" opacity="0.048"/><text x="332.5" y="184.0" font-size="13" fill="#211d16" text-anchor="middle" font-family="ui-monospace,Menlo,monospace" >0.8</text><rect x="366" y="148" width="61" height="61" fill="#a72a1e" opacity="0.040"/><rect x="430" y="148" width="61" height="61" fill="#a72a1e" opacity="0.040"/><rect x="494" y="148" width="61" height="61" fill="#a72a1e" opacity="0.040"/><rect x="110" y="212" width="61" height="61" fill="#14633f" opacity="0.833"/><text x="140.5" y="248.0" font-size="13" fill="#f6f1e6" text-anchor="middle" font-family="ui-monospace,Menlo,monospace" >13.6</text><rect x="174" y="212" width="61" height="61" fill="#14633f" opacity="0.558"/><text x="204.5" y="248.0" font-size="13" fill="#f6f1e6" text-anchor="middle" font-family="ui-monospace,Menlo,monospace" >9.1</text><rect x="238" y="212" width="61" height="61" fill="#9a7b2d" opacity="0.187"/><text x="268.5" y="248.0" font-size="13" fill="#211d16" text-anchor="middle" font-family="ui-monospace,Menlo,monospace" >3.1</text><rect x="302" y="212" width="61" height="61" fill="#a72a1e" opacity="0.042"/><text x="332.5" y="248.0" font-size="13" fill="#211d16" text-anchor="middle" font-family="ui-monospace,Menlo,monospace" >0.7</text><rect x="366" y="212" width="61" height="61" fill="#a72a1e" opacity="0.040"/><rect x="430" y="212" width="61" height="61" fill="#a72a1e" opacity="0.040"/><rect x="494" y="212" width="61" height="61" fill="#a72a1e" opacity="0.040"/><rect x="110" y="276" width="61" height="61" fill="#14633f" opacity="0.486"/><text x="140.5" y="312.0" font-size="13" fill="#f6f1e6" text-anchor="middle" font-family="ui-monospace,Menlo,monospace" >7.9</text><rect x="174" y="276" width="61" height="61" fill="#14633f" opacity="0.326"/><text x="204.5" y="312.0" font-size="13" fill="#211d16" text-anchor="middle" font-family="ui-monospace,Menlo,monospace" >5.3</text><rect x="238" y="276" width="61" height="61" fill="#14633f" opacity="0.109"/><text x="268.5" y="312.0" font-size="13" fill="#211d16" text-anchor="middle" font-family="ui-monospace,Menlo,monospace" >1.8</text><rect x="302" y="276" width="61" height="61" fill="#9a7b2d" opacity="0.040"/><rect x="366" y="276" width="61" height="61" fill="#a72a1e" opacity="0.040"/><rect x="430" y="276" width="61" height="61" fill="#a72a1e" opacity="0.040"/><rect x="494" y="276" width="61" height="61" fill="#a72a1e" opacity="0.040"/><rect x="110" y="340" width="61" height="61" fill="#14633f" opacity="0.213"/><text x="140.5" y="376.0" font-size="13" fill="#211d16" text-anchor="middle" font-family="ui-monospace,Menlo,monospace" >3.5</text><rect x="174" y="340" width="61" height="61" fill="#14633f" opacity="0.142"/><text x="204.5" y="376.0" font-size="13" fill="#211d16" text-anchor="middle" font-family="ui-monospace,Menlo,monospace" >2.3</text><rect x="238" y="340" width="61" height="61" fill="#14633f" opacity="0.048"/><text x="268.5" y="376.0" font-size="13" fill="#211d16" text-anchor="middle" font-family="ui-monospace,Menlo,monospace" >0.8</text><rect x="302" y="340" width="61" height="61" fill="#14633f" opacity="0.040"/><rect x="366" y="340" width="61" height="61" fill="#9a7b2d" opacity="0.040"/><rect x="430" y="340" width="61" height="61" fill="#a72a1e" opacity="0.040"/><rect x="494" y="340" width="61" height="61" fill="#a72a1e" opacity="0.040"/><rect x="110" y="404" width="61" height="61" fill="#14633f" opacity="0.074"/><text x="140.5" y="440.0" font-size="13" fill="#211d16" text-anchor="middle" font-family="ui-monospace,Menlo,monospace" >1.2</text><rect x="174" y="404" width="61" height="61" fill="#14633f" opacity="0.050"/><text x="204.5" y="440.0" font-size="13" fill="#211d16" text-anchor="middle" font-family="ui-monospace,Menlo,monospace" >0.8</text><rect x="238" y="404" width="61" height="61" fill="#14633f" opacity="0.040"/><rect x="302" y="404" width="61" height="61" fill="#14633f" opacity="0.040"/><rect x="366" y="404" width="61" height="61" fill="#14633f" opacity="0.040"/><rect x="430" y="404" width="61" height="61" fill="#9a7b2d" opacity="0.040"/><rect x="494" y="404" width="61" height="61" fill="#a72a1e" opacity="0.040"/><rect x="110" y="468" width="61" height="61" fill="#14633f" opacity="0.040"/><rect x="174" y="468" width="61" height="61" fill="#14633f" opacity="0.040"/><rect x="238" y="468" width="61" height="61" fill="#14633f" opacity="0.040"/><rect x="302" y="468" width="61" height="61" fill="#14633f" opacity="0.040"/><rect x="366" y="468" width="61" height="61" fill="#14633f" opacity="0.040"/><rect x="430" y="468" width="61" height="61" fill="#14633f" opacity="0.040"/><rect x="494" y="468" width="61" height="61" fill="#9a7b2d" opacity="0.040"/><text x="140.5" y="74.0" font-size="12" fill="#6b6353" text-anchor="middle" font-family="ui-monospace,Menlo,monospace" >0</text><text x="98.0" y="120.0" font-size="12" fill="#6b6353" text-anchor="end" font-family="ui-monospace,Menlo,monospace" >0</text><text x="204.5" y="74.0" font-size="12" fill="#6b6353" text-anchor="middle" font-family="ui-monospace,Menlo,monospace" >1</text><text x="98.0" y="184.0" font-size="12" fill="#6b6353" text-anchor="end" font-family="ui-monospace,Menlo,monospace" >1</text><text x="268.5" y="74.0" font-size="12" fill="#6b6353" text-anchor="middle" font-family="ui-monospace,Menlo,monospace" >2</text><text x="98.0" y="248.0" font-size="12" fill="#6b6353" text-anchor="end" font-family="ui-monospace,Menlo,monospace" >2</text><text x="332.5" y="74.0" font-size="12" fill="#6b6353" text-anchor="middle" font-family="ui-monospace,Menlo,monospace" >3</text><text x="98.0" y="312.0" font-size="12" fill="#6b6353" text-anchor="end" font-family="ui-monospace,Menlo,monospace" >3</text><text x="396.5" y="74.0" font-size="12" fill="#6b6353" text-anchor="middle" font-family="ui-monospace,Menlo,monospace" >4</text><text x="98.0" y="376.0" font-size="12" fill="#6b6353" text-anchor="end" font-family="ui-monospace,Menlo,monospace" >4</text><text x="460.5" y="74.0" font-size="12" fill="#6b6353" text-anchor="middle" font-family="ui-monospace,Menlo,monospace" >5</text><text x="98.0" y="440.0" font-size="12" fill="#6b6353" text-anchor="end" font-family="ui-monospace,Menlo,monospace" >5</text><text x="524.5" y="74.0" font-size="12" fill="#6b6353" text-anchor="middle" font-family="ui-monospace,Menlo,monospace" >6</text><text x="98.0" y="504.0" font-size="12" fill="#6b6353" text-anchor="end" font-family="ui-monospace,Menlo,monospace" >6</text><text x="98.0" y="52.0" font-size="11" fill="#6b6353" text-anchor="end" font-family="ui-monospace,Menlo,monospace" >MEX ↓</text><text x="555.0" y="52.0" font-size="11" fill="#6b6353" text-anchor="end" font-family="ui-monospace,Menlo,monospace" >RSA →</text><text x="110.0" y="548.0" font-size="11" fill="#14633f" text-anchor="start" font-family="ui-monospace,Menlo,monospace" >■ Mexico win</text><text x="240.0" y="548.0" font-size="11" fill="#9a7b2d" text-anchor="start" font-family="ui-monospace,Menlo,monospace" >■ draw</text><text x="320.0" y="548.0" font-size="11" fill="#a72a1e" text-anchor="start" font-family="ui-monospace,Menlo,monospace" >■ South Africa win</text></svg>